<?xml version="1.0" encoding="utf-8"?>
<!-- Generator: Adobe Illustrator 21.1.0, SVG Export Plug-In . SVG Version: 6.00 Build 0)  -->
<svg version="1.1" id="Laag_1" xmlns="http://www.w3.org/2000/svg" xmlns:xlink="http://www.w3.org/1999/xlink" x="0px" y="0px"
	 viewBox="0 0 500 373" style="enable-background:new 0 0 500 373;" xml:space="preserve">
<style type="text/css">
	.st0{fill:#E23B3B;}
</style>
<g>
	<path class="st0" d="M66.5,135.3H39.1l4.2-47.5h27.3l1.7-16.8c1.4-14.3,3.8-26.1,7.2-35.3c3.4-9.3,7.8-16.5,13.3-21.9
		c5.5-5.3,12.3-9,20.4-10.9c8.1-2,17.8-2.9,29-2.9c9,0,17.8,0.6,26.5,1.9c8.7,1.3,15,2.3,18.9,3.2l-3.8,47.5
		c-4.5-1.1-9.6-2.2-15.4-3.2c-5.8-1-12.4-1.5-20-1.5c-7,0-11.9,1.8-14.7,5.3c-2.8,3.5-4.5,8.2-5,14.1l-1.7,20.6h45.4l-4.2,47.5
		h-45.4l-14.7,168.3c-1.1,14-3.3,25.5-6.5,34.3c-3.2,8.8-7.8,15.8-13.7,21c-5.9,5.2-13.2,8.8-21.9,10.7c-8.7,2-18.9,2.9-30.7,2.9
		c-6.5,0-12.6-0.2-18.3-0.6c-5.7-0.4-11.4-0.9-17-1.5l4.2-47.5c3.6,0.6,8.1,1,13.5,1.3c5.3,0.3,9.5,0.4,12.6,0.4
		c7.6,0,12.9-1.3,16-4c3.1-2.7,4.9-7.6,5.5-14.9L66.5,135.3z"/>
	<path d="M187,275.7l13.7-159.4h34.4l1.6,16.3c4.9-5.5,10.7-10.1,17.4-13.7c6.7-3.6,14.3-5.4,22.8-5.4c9.6,0,17.2,1.4,23,4.3
		c5.7,2.9,10,7.6,12.8,14.2c5.3-5.5,11.4-10,18.3-13.4c6.9-3.4,15-5.1,24.4-5.1c14.7,0,25,3.6,31.1,10.7c6.1,7.1,9.1,19,9.1,35.5
		c0,2.6-0.1,5.8-0.2,9.7c-0.1,3.9-0.4,7.5-0.8,10.7l-8.3,95.6h-42.4l8.3-96.6c0.2-1.7,0.4-3.9,0.5-6.5c0.1-2.7,0.2-4.7,0.2-6.2
		c0-6.2-0.9-10.4-2.7-12.8c-1.8-2.3-5.1-3.5-9.7-3.5c-3.4,0-6.6,1-9.6,3c-3,2-5.5,4.6-7.5,7.6c-2,3.1-3.7,6.6-4.9,10.5
		c-1.3,3.9-2.1,7.8-2.6,11.6l-8,92.8h-42.4l8.3-96.6c0.2-1.7,0.4-3.9,0.5-6.5c0.1-2.7,0.2-4.7,0.2-6.2c0-6.2-0.9-10.4-2.7-12.8
		c-1.8-2.3-5.1-3.5-9.7-3.5c-4,0-7.5,1.4-10.5,4.1c-3,2.8-5.5,6.1-7.7,10c-2.1,3.9-3.7,8.2-4.8,12.9c-1.1,4.7-1.8,8.9-2.2,12.8
		l-7.3,85.8H187z"/>
	<polygon points="423.5,113.4 409.6,275.7 500,194.6 	"/>
</g>
</svg>
