<?xml version="1.0" encoding="utf-8"?>
<!-- Generator: Adobe Illustrator 21.1.0, SVG Export Plug-In . SVG Version: 6.00 Build 0)  -->
<svg version="1.1" id="Laag_1" xmlns="http://www.w3.org/2000/svg" xmlns:xlink="http://www.w3.org/1999/xlink" x="0px" y="0px"
	 viewBox="0 0 973.1 217" style="enable-background:new 0 0 973.1 217;" xml:space="preserve">
<style type="text/css">
	.st0{fill:#FFFFFF;}
</style>
<g>
	<path class="st0" d="M38.6,79H22.7l2.4-27.6h15.9l1-9.8c0.8-8.3,2.2-15.1,4.2-20.5c2-5.4,4.5-9.6,7.7-12.7
		c3.2-3.1,7.1-5.2,11.9-6.4c4.7-1.1,10.3-1.7,16.9-1.7c5.2,0,10.3,0.4,15.4,1.1c5,0.7,8.7,1.3,11,1.8l-2.2,27.6
		c-2.6-0.6-5.6-1.3-8.9-1.8c-3.3-0.6-7.2-0.9-11.6-0.9c-4.1,0-6.9,1-8.6,3.1c-1.6,2-2.6,4.8-2.9,8.2l-1,12h26.4L97.7,79H71.4
		l-8.6,97.7c-0.7,8.1-1.9,14.8-3.8,19.9c-1.9,5.1-4.5,9.2-7.9,12.2c-3.4,3-7.7,5.1-12.7,6.2c-5.1,1.1-11,1.7-17.8,1.7
		c-3.7,0-7.3-0.1-10.6-0.4c-3.3-0.2-6.6-0.5-9.9-0.9L2.4,188c2.1,0.3,4.7,0.6,7.8,0.7c3.1,0.2,5.5,0.2,7.3,0.2
		c4.4,0,7.5-0.8,9.3-2.3c1.8-1.5,2.8-4.4,3.2-8.7L38.6,79z"/>
	<path class="st0" d="M103.4,160.6l8-92.6h20l1.1,11.7c2.6-4.1,5.6-7.3,9-9.7c3.4-2.4,7.2-3.6,11.6-3.6c2,0,3.6,0.1,4.8,0.2
		c1.2,0.1,2.3,0.3,3.3,0.6L159,92.6c-2.7-0.7-5.4-1.1-8-1.1c-5.3,0-9.7,2.3-13.1,7c-3.5,4.7-5.5,10.8-6.1,18.3l-3.7,43.7H103.4z"/>
	<path class="st0" d="M240.8,93.2c0,5.1-0.6,9.6-1.9,13.5c-1.3,4-3.4,7.3-6.2,10c-2.8,2.7-6.6,4.8-11.3,6.2
		c-4.7,1.4-10.4,2.1-17,2.1c-2,0-4,0-6.2-0.1c-2.2-0.1-4.4-0.2-6.8-0.5v1.5c0,5.8,1,9.8,3.1,11.9c2,2.2,5.7,3.2,11,3.2
		c4.2,0,8.5-0.3,13-0.9c4.4-0.6,8.1-1.2,10.9-1.9l-1.9,20.7c-1.5,0.4-3.3,0.8-5.4,1.2c-2.1,0.4-4.2,0.8-6.4,1
		c-2.2,0.2-4.3,0.5-6.4,0.6c-2.1,0.2-4,0.3-5.7,0.3c-5.6,0-10.6-0.5-15.1-1.4c-4.5-0.9-8.4-2.7-11.6-5.4c-3.2-2.7-5.7-6.4-7.5-11.3
		c-1.8-4.9-2.7-11.3-2.7-19.2c0-3.3,0.2-6.9,0.6-10.7c0.7-8.5,2.2-15.8,4.3-21.9c2.1-6.1,4.9-11.1,8.3-14.9
		c3.5-3.8,7.7-6.6,12.6-8.4c4.9-1.8,10.6-2.7,17-2.7c6.5,0,11.9,0.9,15.9,2.8c4.1,1.9,7.3,4.1,9.5,6.9c2.3,2.7,3.8,5.6,4.6,8.8
		C240.4,87.9,240.8,90.7,240.8,93.2z M207.3,86.7c-3.6,0-6.5,1.4-8.7,4.1c-2.2,2.7-4,7.5-5.4,14.4c3.2,0.4,6.1,0.6,8.7,0.6
		c4.4,0,8-0.7,10.6-2.1c2.7-1.4,4-3.9,4-7.5c0-2.6-0.5-4.8-1.6-6.7C214,87.6,211.4,86.7,207.3,86.7z"/>
	<path class="st0" d="M317.5,128.2c0,6.8-1,12.4-3,16.8c-2,4.4-4.7,7.9-8.2,10.5c-3.5,2.6-7.7,4.4-12.7,5.4
		c-4.9,1-10.3,1.5-16.1,1.5c-2.3,0-4.8-0.1-7.2-0.3c-2.5-0.2-4.8-0.4-7-0.7c-2.2-0.3-4.3-0.6-6.2-0.9c-1.9-0.3-3.5-0.6-4.7-1
		l1.9-20.9c2.5,0.6,5.6,1.3,9.5,2c3.9,0.7,8,1.1,12.3,1.1c4.8,0,8.7-0.6,11.6-1.9c2.9-1.3,4.4-3.9,4.4-7.9c0-2.3-0.8-4.1-2.3-5.2
		c-1.5-1.1-4.4-2.1-8.6-3c-8.8-1.7-14.9-4.8-18.4-9.2c-3.5-4.4-5.3-9.5-5.3-15.5c0-12,3.4-20.4,10.1-25.3c6.7-4.9,16.8-7.3,30.3-7.3
		c2,0,4.1,0.1,6.3,0.3c2.2,0.2,4.4,0.4,6.4,0.7c2,0.3,3.9,0.6,5.6,0.9c1.7,0.3,2.9,0.6,3.8,0.8l-1.9,21.1c-2.8-0.9-5.9-1.6-9.3-2.2
		c-3.3-0.6-7.5-0.9-12.6-0.9c-4.8,0-8.2,0.7-10.3,2c-2,1.4-3.1,3.6-3.1,6.7c0,2.1,1,3.5,2.9,4.4c1.9,0.8,4.7,1.6,8.4,2.5
		c9,2,15.2,5.2,18.5,9.5C315.8,116.5,317.5,121.9,317.5,128.2z"/>
	<path class="st0" d="M334.3,160.6L345.6,31h24.6l-3.9,43.9c2.8-2.6,6.1-4.7,9.8-6.2c3.7-1.5,7.8-2.3,12.2-2.3
		c9.4,0,15.9,2.3,19.6,6.8c3.7,4.5,5.6,11.6,5.6,21.2c0,1.4,0,2.7-0.1,4c-0.1,1.3-0.2,3.6-0.5,6.8l-4.8,55.5h-24.6l4.8-56.1
		c0.1-0.9,0.2-1.9,0.3-3.2c0.1-1.3,0.1-2.3,0.1-2.9c0-4.3-0.8-7.2-2.3-8.6c-1.5-1.4-3.8-2.1-6.8-2.1c-2.3,0-4.4,0.6-6.3,1.9
		c-1.9,1.2-3.5,2.8-4.9,4.7c-1.4,1.9-2.5,4-3.3,6.4c-0.8,2.3-1.3,4.6-1.6,6.9l-4.6,53.1H334.3z"/>
	<path d="M483.2,160.6l8-92.6h20l0.9,9.4c2.8-3.2,6.2-5.9,10.1-8c3.9-2.1,8.3-3.1,13.2-3.1c5.6,0,10,0.8,13.3,2.5
		c3.3,1.7,5.8,4.4,7.4,8.2c3.1-3.2,6.6-5.8,10.6-7.8c4-2,8.7-3,14.2-3c8.5,0,14.5,2.1,18.1,6.2c3.5,4.1,5.3,11,5.3,20.6
		c0,1.5,0,3.4-0.1,5.6c-0.1,2.3-0.2,4.4-0.5,6.2l-4.8,55.5h-24.6l4.8-56.1c0.1-1,0.2-2.3,0.3-3.8c0.1-1.5,0.1-2.7,0.1-3.6
		c0-3.6-0.5-6-1.6-7.4c-1.1-1.4-2.9-2-5.6-2c-2,0-3.8,0.6-5.6,1.8c-1.7,1.2-3.2,2.7-4.4,4.4c-1.2,1.8-2.1,3.8-2.9,6.1
		c-0.7,2.3-1.2,4.5-1.5,6.8l-4.6,53.9h-24.6l4.8-56.1c0.1-1,0.2-2.3,0.3-3.8c0.1-1.5,0.1-2.7,0.1-3.6c0-3.6-0.5-6-1.6-7.4
		c-1.1-1.4-2.9-2-5.6-2c-2.3,0-4.4,0.8-6.1,2.4c-1.7,1.6-3.2,3.5-4.4,5.8c-1.2,2.3-2.2,4.8-2.8,7.5c-0.6,2.7-1.1,5.2-1.3,7.4
		l-4.3,49.8H483.2z"/>
	<path d="M653.8,68l-4.6,54.3c-0.1,1.7-0.2,3.4-0.4,4.9c-0.1,1.5-0.2,2.7-0.2,3.4c0,4.3,0.7,7.1,2.2,8.4c1.5,1.3,3.6,1.9,6.5,1.9
		c2.6,0,4.8-0.8,6.8-2.4c1.9-1.6,3.5-3.5,4.8-5.8c1.3-2.3,2.3-4.8,3-7.5c0.7-2.7,1.1-5.2,1.2-7.4l4.3-49.8h24.6l-8,92.6h-20
		l-0.9-9.3c-3,3.2-6.5,5.8-10.5,7.9c-4,2-8.7,3.1-14,3.1c-9.3,0-15.7-2.3-19.3-7c-3.6-4.7-5.5-11.8-5.5-21.3c0-1.4,0-2.8,0.1-4.3
		c0.1-1.5,0.2-3.1,0.3-4.8l5-56.8H653.8z"/>
	<path d="M779.9,128.2c0,6.8-1,12.4-3,16.8c-2,4.4-4.7,7.9-8.2,10.5c-3.5,2.6-7.7,4.4-12.7,5.4c-4.9,1-10.3,1.5-16.1,1.5
		c-2.3,0-4.8-0.1-7.2-0.3c-2.5-0.2-4.8-0.4-7-0.7c-2.2-0.3-4.3-0.6-6.2-0.9c-1.9-0.3-3.5-0.6-4.7-1l1.9-20.9c2.5,0.6,5.6,1.3,9.5,2
		c3.9,0.7,8,1.1,12.3,1.1c4.8,0,8.7-0.6,11.6-1.9c2.9-1.3,4.4-3.9,4.4-7.9c0-2.3-0.8-4.1-2.3-5.2c-1.5-1.1-4.4-2.1-8.6-3
		c-8.8-1.7-14.9-4.8-18.4-9.2c-3.5-4.4-5.3-9.5-5.3-15.5c0-12,3.4-20.4,10.1-25.3c6.7-4.9,16.8-7.3,30.3-7.3c2,0,4.1,0.1,6.3,0.3
		c2.2,0.2,4.4,0.4,6.4,0.7c2,0.3,3.9,0.6,5.6,0.9c1.7,0.3,2.9,0.6,3.8,0.8l-1.9,21.1c-2.8-0.9-5.9-1.6-9.3-2.2
		c-3.3-0.6-7.5-0.9-12.6-0.9c-4.8,0-8.2,0.7-10.3,2c-2,1.4-3.1,3.6-3.1,6.7c0,2.1,1,3.5,2.9,4.4c1.9,0.8,4.7,1.6,8.4,2.5
		c9,2,15.2,5.2,18.5,9.5C778.2,116.5,779.9,121.9,779.9,128.2z"/>
	<path d="M796.7,160.6l8-92.6h24.6l-8,92.6H796.7z M805.2,52.3l1.9-21.3h26.5l-1.9,21.3H805.2z"/>
	<path d="M901.5,159.5c-3.1,0.9-6.6,1.5-10.6,2c-4,0.5-7.6,0.7-10.9,0.7c-5.1,0-9.7-0.5-13.8-1.4c-4.1-0.9-7.7-2.7-10.6-5.5
		c-3-2.7-5.2-6.5-6.9-11.4c-1.6-4.9-2.4-11.3-2.4-19.2c0-10.6,0.9-19.6,2.6-27c1.7-7.4,4.3-13.5,7.8-18.1c3.5-4.7,7.8-8.1,13.1-10.2
		c5.3-2.1,11.5-3.1,18.7-3.1c3.1,0,6.7,0.3,10.7,0.8c4.1,0.6,7.5,1.1,10.2,1.8l-1.9,21.7c-1.7-0.4-3.3-0.7-4.6-1
		c-1.4-0.3-2.8-0.6-4.3-0.8s-3.1-0.4-4.8-0.6c-1.7-0.1-3.8-0.2-6.1-0.2c-2.1,0-4,0.4-5.7,1.1c-1.7,0.7-3.2,2.1-4.5,4.2
		c-1.3,2-2.4,4.9-3.3,8.5c-0.9,3.6-1.7,8.4-2.3,14.4c-0.1,1.4-0.2,2.6-0.3,3.8c-0.1,1.2-0.1,2.3-0.1,3.4c0,6.5,1,11,2.9,13.5
		c1.9,2.5,4.7,3.7,8.4,3.7c4.7,0,8.6-0.3,11.8-0.9c3.1-0.6,6.1-1.2,8.8-1.7L901.5,159.5z"/>
	<polygon points="927.9,67.9 919.7,163.8 973.1,115.8 	"/>
</g>
</svg>
